<?xml version="1.0" encoding="UTF-8" standalone="no"?>
<svg
   xmlns:dc="http://purl.org/dc/elements/1.1/"
   xmlns:cc="http://creativecommons.org/ns#"
   xmlns:rdf="http://www.w3.org/1999/02/22-rdf-syntax-ns#"
   xmlns:svg="http://www.w3.org/2000/svg"
   xmlns="http://www.w3.org/2000/svg"
   xmlns:sodipodi="http://sodipodi.sourceforge.net/DTD/sodipodi-0.dtd"
   xmlns:inkscape="http://www.inkscape.org/namespaces/inkscape"
   inkscape:version="1.0 (6e3e5246a0, 2020-05-07)"
   sodipodi:docname="logo.svg"
   id="svg56"
   version="1.1"
   viewBox="0 0 534 595"
   height="111.215mm"
   width="99.8131mm">
  <metadata
     id="metadata62">
    <rdf:RDF>
      <cc:Work
         rdf:about="">
        <dc:format>image/svg+xml</dc:format>
        <dc:type
           rdf:resource="http://purl.org/dc/dcmitype/StillImage" />
      </cc:Work>
    </rdf:RDF>
  </metadata>
  <defs
     id="defs60" />
  <sodipodi:namedview
     inkscape:current-layer="svg56"
     inkscape:window-maximized="1"
     inkscape:window-y="27"
     inkscape:window-x="67"
     inkscape:cy="210.17007"
     inkscape:cx="81.65603"
     inkscape:zoom="1.5939472"
     showgrid="false"
     id="namedview58"
     inkscape:window-height="845"
     inkscape:window-width="1533"
     inkscape:pageshadow="2"
     inkscape:pageopacity="0"
     guidetolerance="10"
     gridtolerance="10"
     objecttolerance="10"
     borderopacity="1"
     bordercolor="#666666"
     pagecolor="#ffffff" />
  <path
     style="fill:#a20000;fill-opacity:1"
     d="M 178.00,279.21            C 178.00,279.21 194.00,279.21 194.00,279.21              204.59,279.05 226.05,282.69 236.00,286.22              255.74,293.22 272.56,301.43 287.83,316.28              302.35,330.41 312.05,349.21 319.05,368.00              330.51,398.76 335.61,432.33 337.04,465.00              337.04,465.00 338.00,476.00 338.00,476.00              338.00,476.00 338.00,481.00 338.00,481.00              338.00,481.00 339.00,501.00 339.00,501.00              339.00,501.00 338.01,513.00 338.01,513.00              337.31,540.17 329.39,580.92 301.00,592.07              292.76,595.31 286.59,595.10 278.00,595.00              252.84,594.70 233.92,575.38 219.58,557.00              201.94,534.41 187.51,514.26 163.00,498.34              157.07,494.49 156.00,494.44 150.00,491.69              111.61,474.11 80.12,477.42 44.00,464.31              18.85,455.17 0.04,438.40 0.00,410.00              -0.01,402.48 -0.35,398.46 1.75,391.00              5.78,376.59 11.97,371.26 21.99,361.00              21.99,361.00 35.00,347.98 35.00,347.98              55.35,328.98 79.19,314.16 104.00,301.75              118.55,294.48 134.18,287.41 150.00,283.47              150.00,283.47 168.00,280.17 168.00,280.17              168.00,280.17 178.00,279.21 178.00,279.21 Z            M 466.00,298.63            C 472.99,297.57 476.20,298.03 483.00,298.63              501.97,301.11 518.66,306.79 528.02,325.00              534.08,336.78 534.02,344.34 534.00,357.00              533.97,374.76 527.67,387.58 518.00,402.00              497.51,432.55 459.56,456.42 422.00,456.00              408.60,455.84 390.72,451.75 380.00,443.47              355.75,424.76 357.77,389.00 369.78,364.00              373.43,356.42 378.32,350.45 383.61,344.00              400.10,323.88 422.57,307.99 448.00,301.48              448.00,301.48 466.00,298.63 466.00,298.63 Z            M 439.00,98.42            C 449.93,97.09 467.01,98.70 477.00,103.40              499.23,113.86 508.11,138.97 508.00,162.00              507.92,179.35 501.20,197.02 492.86,212.00              474.29,245.36 437.22,277.94 397.00,278.00              397.00,278.00 385.00,278.00 385.00,278.00              381.03,277.95 373.72,277.10 370.00,275.91              347.57,268.72 334.11,243.62 334.00,221.00              334.00,221.00 334.00,213.00 334.00,213.00              334.03,191.18 343.51,169.40 356.15,152.00              377.02,123.27 403.51,103.78 439.00,98.42 Z            M 269.00,0.22            C 269.00,0.22 281.00,0.22 281.00,0.22              295.46,0.02 304.94,4.73 314.99,15.00              332.79,33.18 339.29,59.18 339.00,84.00              338.65,113.52 326.40,146.14 308.00,169.00              296.45,183.35 279.50,195.60 261.00,198.72              253.99,199.90 250.10,200.41 243.00,199.25              237.38,198.33 232.16,197.27 227.00,194.73              203.32,183.06 190.04,148.28 190.00,123.00              190.00,123.00 190.00,109.00 190.00,109.00              190.34,80.49 207.95,39.21 229.00,20.17              240.69,9.60 253.56,3.29 269.00,0.22 Z            M 78.00,85.46            C 97.49,82.77 116.54,87.92 129.82,103.00              135.53,109.49 139.54,117.26 143.25,125.00              159.23,158.33 157.39,201.47 140.22,234.00              130.66,252.11 115.04,269.58 94.00,273.38              94.00,273.38 80.00,274.79 80.00,274.79              53.71,273.39 35.63,249.76 26.81,227.00              13.47,192.58 16.67,151.76 35.60,120.00              45.75,102.99 58.14,89.87 78.00,85.46 Z"
     stroke-width="1"
     stroke="black"
     fill="none"
     id="Selection #4" />
</svg>
